<svg xmlns="http://www.w3.org/2000/svg" xmlns:xlink="http://www.w3.org/1999/xlink" viewBox="0 0 348.19 122.49"><defs><style>.cls-1{fill:none;}.cls-2{clip-path:url(#clip-path);}.cls-3{font-size:67.5px;fill:#d0eaf4;font-family:Poppins-Regular, Poppins;}</style><clipPath id="clip-path"><rect class="cls-1" x="-1.47" y="0.06" width="357.17" height="120"/></clipPath></defs><g id="Ebene_2" data-name="Ebene 2"><g class="cls-2"><path d="M29.18,24V57.83q0,6.29-3.81,9.93a13.93,13.93,0,0,1-10,3.64,13.89,13.89,0,0,1-10-3.64Q1.5,64.11,1.5,57.83H9.26a7.77,7.77,0,0,0,1.59,4.93,5.51,5.51,0,0,0,4.49,1.82,5.54,5.54,0,0,0,4.52-1.85,7.37,7.37,0,0,0,1.56-4.9V24Z"/><path d="M91.08,24V70.93h-7.7V38.8L69.07,70.93H63.74L49.36,38.8V70.93H41.67V24H50L66.44,60.8,82.84,24Z"/><path d="M135.15,37.52a12.36,12.36,0,0,0-5.06-5.3,15.28,15.28,0,0,0-7.49-1.79,16.4,16.4,0,0,0-8.3,2.09,14.79,14.79,0,0,0-5.71,5.94,18.66,18.66,0,0,0-2.06,8.91,18.85,18.85,0,0,0,2.06,9,14.62,14.62,0,0,0,5.71,6,16.4,16.4,0,0,0,8.3,2.09,14.69,14.69,0,0,0,10.19-3.51,15.22,15.22,0,0,0,4.79-9.51H120V45.21h25.85v6A23.16,23.16,0,0,1,122.6,71.33a24.26,24.26,0,0,1-12.09-3.07,22.93,22.93,0,0,1-8.67-8.54,23.91,23.91,0,0,1-3.2-12.35A23.94,23.94,0,0,1,101.84,35a22.82,22.82,0,0,1,8.71-8.54,25.6,25.6,0,0,1,25.38.61,20.92,20.92,0,0,1,8.47,10.43Z"/><text class="cls-3" transform="translate(148.32 70.93)"> </text><path d="M176.46,23.75V70.93h-4.72V23.75Z"/><path d="M214.81,23.75v3.91h-13.1V70.93H197V27.66H183.82V23.75Z"/><path d="M291.62,52.87h0a15.17,15.17,0,0,1-4.44-10.72V30.88a5.74,5.74,0,0,1,5.73-5.73h7a8.36,8.36,0,0,0,8.36-8.36V9.6a8.36,8.36,0,0,0-8.36-8.36H292.7a8.36,8.36,0,0,0-8.36,8.36V16A5.77,5.77,0,0,1,282.66,20l-.82.81a5.73,5.73,0,0,1-4,1.68h-15.1A13.49,13.49,0,0,0,249.21,36V47a13.48,13.48,0,0,0,13.48,13.48h6.18A15.18,15.18,0,0,1,284,75.62V97.91a22.15,22.15,0,0,0,22.14,22.15h18.46a22.15,22.15,0,0,0,22.15-22.15V79.45a22.15,22.15,0,0,0-22.15-22.14H302.33a15.15,15.15,0,0,1-10.71-4.44"/></g></g></svg>