<svg width="1024" height="1024" viewBox="0 0 1024 1024" fill="none" xmlns="http://www.w3.org/2000/svg">
<path d="M478.198 443.959C470.38 436.149 464.179 426.875 459.95 416.666C455.721 406.458 453.546 395.516 453.551 384.466V321.873C453.544 317.692 454.364 313.55 455.963 309.686C457.561 305.822 459.907 302.312 462.867 299.357C465.826 296.403 469.339 294.062 473.206 292.47C477.072 290.877 481.215 290.064 485.397 290.077H524.192C536.467 290.011 548.216 285.089 556.872 276.386C565.528 267.683 570.387 255.907 570.387 243.633V203.637C570.387 197.538 569.185 191.499 566.851 185.864C564.517 180.229 561.096 175.109 556.784 170.796C552.471 166.483 547.351 163.062 541.716 160.728C536.081 158.394 530.041 157.193 523.942 157.193H483.947C471.629 157.193 459.816 162.086 451.106 170.796C442.396 179.506 437.503 191.32 437.503 203.637V238.983C437.488 247.415 434.147 255.499 428.204 261.48L423.605 266.03C420.649 268.982 417.141 271.322 413.281 272.918C409.421 274.513 405.284 275.332 401.107 275.329H317.517C297.628 275.329 278.554 283.23 264.491 297.293C250.427 311.357 242.526 330.431 242.526 350.32V411.312C242.526 431.201 250.427 450.276 264.491 464.339C278.554 478.403 297.628 486.303 317.517 486.303H351.813C374.129 486.343 395.52 495.226 411.301 511.006C427.081 526.786 435.963 548.177 436.003 570.493V694.328C435.996 710.483 439.173 726.481 445.35 741.408C451.528 756.335 460.586 769.899 472.007 781.324C483.428 792.75 496.988 801.813 511.912 807.997C526.837 814.181 542.833 817.364 558.988 817.364H661.526C677.683 817.364 693.682 814.181 708.609 807.998C723.537 801.815 737.1 792.752 748.525 781.327C759.95 769.903 769.012 756.339 775.195 741.412C781.379 726.485 784.561 710.486 784.561 694.328V591.691C784.561 575.534 781.379 559.535 775.195 544.607C769.012 529.68 759.95 516.117 748.525 504.692C737.1 493.267 723.537 484.204 708.609 478.021C693.682 471.838 677.683 468.656 661.526 468.656H537.691C526.637 468.654 515.693 466.471 505.484 462.233C495.275 457.995 486.003 451.785 478.198 443.959Z" fill="white"/>
</svg>
